<svg width="23" height="23" viewBox="0 0 23 23" fill="none" xmlns="http://www.w3.org/2000/svg">
<path d="M20.8438 8.625C20.8438 8.24375 20.6923 7.87812 20.4227 7.60853C20.1531 7.33895 19.7875 7.1875 19.4062 7.1875H16.5312V4.3125C16.5312 3.93125 16.3798 3.56562 16.1102 3.29603C15.8406 3.02645 15.475 2.875 15.0938 2.875H3.59375C3.2125 2.875 2.84687 3.02645 2.57728 3.29603C2.3077 3.56562 2.15625 3.93125 2.15625 4.3125V15.8125C2.15667 15.9477 2.19523 16.0801 2.2675 16.1944C2.33976 16.3087 2.4428 16.4003 2.56478 16.4586C2.68676 16.517 2.82273 16.5397 2.95707 16.5243C3.0914 16.5089 3.21866 16.4558 3.32422 16.3713L6.46875 13.8359V16.5312C6.46875 16.9125 6.6202 17.2781 6.88978 17.5477C7.15937 17.8173 7.525 17.9688 7.90625 17.9688H16.3147L19.6758 20.6838C19.803 20.7867 19.9614 20.8431 20.125 20.8438C20.3156 20.8437 20.4984 20.768 20.6332 20.6332C20.768 20.4984 20.8438 20.3156 20.8438 20.125V8.625ZM17.0209 16.6912C16.8937 16.5883 16.7353 16.5319 16.5717 16.5312H7.90625V13.6562H15.0938C15.475 13.6562 15.8406 13.5048 16.1102 13.2352C16.3798 12.9656 16.5312 12.6 16.5312 12.2188V8.625H19.4062V18.6201L17.0209 16.6912Z" fill="black"/>
</svg>
