<svg width="15" height="15" viewBox="0 0 15 15" fill="none" xmlns="http://www.w3.org/2000/svg">
<g id="ri:headphone-line" opacity="0.5">
<path id="Vector" d="M7.5 2.5C6.17392 2.5 4.90215 3.02678 3.96447 3.96447C3.02678 4.90215 2.5 6.17392 2.5 7.5H4.375C4.70652 7.5 5.02446 7.6317 5.25888 7.86612C5.4933 8.10054 5.625 8.41848 5.625 8.75V11.875C5.625 12.2065 5.4933 12.5245 5.25888 12.7589C5.02446 12.9933 4.70652 13.125 4.375 13.125H2.5C2.16848 13.125 1.85054 12.9933 1.61612 12.7589C1.3817 12.5245 1.25 12.2065 1.25 11.875V7.5C1.25 4.04813 4.04813 1.25 7.5 1.25C10.9519 1.25 13.75 4.04813 13.75 7.5V11.875C13.75 12.2065 13.6183 12.5245 13.3839 12.7589C13.1495 12.9933 12.8315 13.125 12.5 13.125H10.625C10.2935 13.125 9.97554 12.9933 9.74112 12.7589C9.5067 12.5245 9.375 12.2065 9.375 11.875V8.75C9.375 8.41848 9.5067 8.10054 9.74112 7.86612C9.97554 7.6317 10.2935 7.5 10.625 7.5H12.5C12.5 6.17392 11.9732 4.90215 11.0355 3.96447C10.0979 3.02678 8.82608 2.5 7.5 2.5ZM4.375 12L2.5 11.875H4.375V8.75V12ZM12.5 12L10.625 11.875H12.5V8.75V12Z" fill="black"/>
</g>
</svg>
